<?xml version="1.0" standalone="no"?>
<!DOCTYPE svg PUBLIC "-//W3C//DTD SVG 20010904//EN"
 "http://www.w3.org/TR/2001/REC-SVG-20010904/DTD/svg10.dtd">
<svg version="1.0" xmlns="http://www.w3.org/2000/svg"
 width="700.000000pt" height="700.000000pt" viewBox="0 0 700.000000 700.000000"
 preserveAspectRatio="xMidYMid meet">
<metadata>
Created by potrace 1.11, written by Peter Selinger 2001-2013
</metadata>
<g transform="translate(0.000000,700.000000) scale(0.100000,-0.100000)"
fill="#000000" stroke="none">
<path d="M6418 6755 c-1 -1 -33 -5 -69 -8 -208 -16 -401 -183 -464 -401 -23
-79 -23 -248 -1 -285 4 -5 -40 -49 -96 -96 -57 -48 -114 -97 -128 -109 -14
-11 -63 -52 -110 -91 -47 -38 -90 -74 -96 -80 -6 -5 -33 -29 -60 -51 -27 -23
-139 -117 -249 -209 -110 -93 -238 -200 -285 -239 -47 -39 -98 -83 -114 -97
-27 -25 -30 -25 -58 -12 -152 77 -404 47 -545 -65 l-38 -29 -255 117 c-140 64
-280 128 -310 142 -30 14 -86 40 -125 57 -324 148 -335 153 -335 175 -2 89
-32 189 -79 266 -47 75 -65 97 -126 147 -100 82 -215 123 -350 123 -249 0
-469 -170 -531 -410 -18 -69 -22 -171 -10 -232 l7 -37 -188 -144 c-103 -79
-269 -205 -368 -281 -99 -75 -193 -147 -210 -160 -16 -13 -79 -61 -140 -106
-60 -46 -138 -105 -173 -132 -60 -47 -63 -48 -91 -34 -64 34 -171 55 -254 52
-97 -4 -151 -17 -231 -57 -272 -135 -382 -466 -245 -737 149 -298 517 -397
796 -215 109 71 196 194 229 321 17 66 23 209 10 249 -5 17 28 45 216 189 122
93 377 287 566 432 190 144 350 262 357 262 6 0 26 -7 42 -15 90 -45 263 -58
366 -28 57 16 171 75 202 103 20 18 22 18 80 -9 165 -78 257 -121 260 -121 3
0 72 -31 233 -106 42 -20 95 -44 117 -54 53 -24 182 -83 278 -127 66 -31 77
-40 78 -62 5 -196 126 -384 306 -475 209 -105 464 -63 633 104 131 131 180
285 157 495 l-7 60 111 90 c61 50 118 97 127 105 9 8 141 118 292 245 151 126
286 240 300 252 14 12 94 80 179 150 l154 129 61 -24 c82 -33 215 -41 306 -18
342 86 523 448 380 762 -78 174 -246 301 -420 319 -30 4 -60 8 -67 10 -6 2
-13 2 -15 0z"/>
<path d="M6042 4789 c-95 -9 -147 -44 -189 -129 -16 -33 -17 -152 -18 -1983 0
-1304 3 -1951 10 -1955 5 -4 267 -7 582 -7 l572 0 0 1955 c0 1906 -1 1956 -20
1995 -25 53 -79 100 -133 115 -47 13 -676 20 -804 9z"/>
<path d="M2080 4034 c-46 -20 -87 -59 -113 -109 l-21 -40 -1 -1575 c-1 -866 0
-1580 2 -1585 2 -7 202 -10 581 -10 l577 0 2 1575 c2 1198 0 1584 -9 1614 -16
50 -85 119 -136 134 -28 8 -158 12 -443 12 -338 -1 -410 -3 -439 -16z"/>
<path d="M4140 3160 c-80 -4 -102 -9 -140 -32 -55 -33 -72 -53 -94 -109 -15
-40 -16 -141 -14 -1174 l3 -1130 570 -1 c314 0 575 1 580 3 7 2 10 381 10
1141 l-1 1137 -22 42 c-26 50 -85 100 -133 113 -40 11 -604 18 -759 10z"/>
<path d="M150 2554 c-49 -14 -101 -58 -128 -108 -15 -28 -17 -107 -20 -881
l-2 -850 580 0 c380 0 580 3 581 10 1 5 2 379 3 830 2 739 1 824 -14 865 -21
57 -54 96 -105 123 -39 21 -51 22 -445 23 -310 1 -416 -2 -450 -12z"/>
<path d="M2 472 c-2 -8 1 -38 7 -68 16 -69 78 -137 142 -154 29 -8 171 -12
440 -12 373 0 400 1 441 20 75 33 124 102 130 182 l3 44 -579 1 c-474 0 -579
-2 -584 -13z"/>
<path d="M1951 482 c-14 -5 -3 -79 18 -120 27 -52 57 -82 108 -104 41 -18 70
-19 452 -20 399 0 408 1 454 22 76 36 116 93 124 180 l5 45 -576 0 c-317 0
-580 -1 -585 -3z"/>
<path d="M3894 481 c-8 -8 -4 -54 8 -95 16 -54 83 -118 139 -135 33 -10 140
-13 441 -13 381 1 398 2 445 22 51 22 107 85 117 130 13 59 14 90 3 91 -37 4
-1149 3 -1153 0z"/>
<path d="M5848 482 c-37 -7 2 -130 59 -184 61 -58 69 -59 502 -60 267 0 410 4
438 11 48 13 117 74 134 118 6 16 13 48 16 73 l5 45 -569 0 c-313 0 -576 -1
-585 -3z"/>
</g>
</svg>
